<?xml version="1.0" standalone="no"?>
<!DOCTYPE svg PUBLIC "-//W3C//DTD SVG 20010904//EN"
 "http://www.w3.org/TR/2001/REC-SVG-20010904/DTD/svg10.dtd">
<svg version="1.0" xmlns="http://www.w3.org/2000/svg"
 width="880.000000pt" height="1680.000000pt" viewBox="0 0 880.000000 1680.000000"
 preserveAspectRatio="xMidYMid meet">

<g transform="translate(0.000000,1680.000000) scale(0.100000,-0.100000)"
fill="#000000" stroke="none">
<path d="M3521 14342 c-21 -30 -73 -50 -201 -77 -152 -32 -390 -14 -527 41
-36 14 -66 24 -69 22 -2 -3 6 -67 18 -144 18 -121 21 -195 25 -564 5 -435 -5
-710 -33 -935 -8 -66 -17 -204 -21 -306 l-6 -187 -66 -7 c-36 -3 -98 -15 -138
-25 -158 -43 -262 -108 -338 -214 -261 -366 -182 -900 171 -1152 94 -67 237
-126 334 -136 18 -2 26 -11 30 -34 4 -17 7 -208 8 -425 2 -455 17 -964 32
-1094 26 -229 81 -487 145 -680 15 -44 57 -144 95 -222 62 -129 68 -146 59
-175 -18 -62 -78 -403 -95 -548 -23 -183 -26 -636 -6 -780 40 -284 126 -536
248 -727 48 -77 165 -215 210 -249 19 -15 31 -30 27 -35 -12 -11 -168 -56
-237 -68 -142 -26 -329 -6 -454 48 -300 127 -554 429 -676 802 -106 322 -130
632 -76 982 28 180 93 464 152 657 265 874 297 1007 305 1285 9 300 -44 463
-198 613 -107 103 -196 151 -332 178 -238 49 -484 -37 -666 -232 -146 -156
-205 -350 -181 -588 22 -219 79 -364 184 -470 73 -75 135 -106 209 -106 57 0
83 13 130 65 53 58 70 109 65 188 -5 70 -14 98 -95 287 -25 59 -27 76 -27 180
1 127 11 163 66 225 47 55 101 78 178 79 131 0 209 -44 259 -146 89 -182 60
-443 -118 -1035 -165 -553 -235 -837 -278 -1130 -25 -168 -28 -216 -28 -458 0
-291 11 -401 61 -595 52 -198 163 -446 276 -615 83 -125 244 -294 350 -368
148 -104 359 -189 547 -221 115 -19 334 -20 446 -2 44 8 82 12 83 11 2 -2 -17
-75 -42 -162 -42 -149 -165 -619 -208 -798 -26 -106 -35 -415 -18 -581 22
-226 119 -648 224 -985 130 -417 206 -722 206 -826 0 -70 -5 -71 257 22 112
39 278 75 348 75 25 0 45 2 45 5 0 3 -33 88 -74 188 -83 205 -113 290 -185
530 -98 322 -130 553 -138 972 -8 416 11 576 107 909 32 111 72 255 90 321 32
120 129 448 134 453 2 1 45 -4 97 -13 171 -27 411 -37 600 -26 95 6 174 10
175 8 2 -2 40 -80 85 -173 119 -247 222 -487 260 -600 28 -87 32 -112 32 -204
0 -122 -16 -178 -108 -380 -71 -154 -405 -993 -405 -1016 0 -6 39 -10 93 -11
166 -3 310 -55 487 -174 49 -34 95 -59 102 -56 7 2 25 42 39 88 15 46 58 165
97 264 201 514 363 975 393 1120 l12 61 -56 134 c-96 232 -137 408 -137 594
l0 100 -95 222 c-52 122 -95 227 -95 232 0 6 37 35 83 65 349 230 551 591 608
1087 16 146 6 479 -20 641 -28 175 -133 582 -197 769 -8 23 6 6 93 -115 473
-656 767 -1190 862 -1570 56 -220 62 -369 24 -610 -37 -241 -95 -351 -276
-524 -83 -78 -92 -100 -77 -170 32 -148 161 -282 379 -396 l73 -39 19 25 c11
13 61 87 113 164 203 305 348 611 414 874 23 91 26 126 26 246 -1 131 -4 151
-42 300 -76 293 -149 492 -281 770 -217 455 -560 966 -967 1439 -138 161 -312
346 -325 346 -4 0 -39 -20 -76 -44 -146 -94 -365 -189 -547 -236 -59 -16 -111
-31 -114 -34 -6 -6 3 -30 115 -316 47 -118 131 -319 188 -446 164 -367 191
-479 182 -758 -5 -194 -31 -305 -103 -452 -141 -289 -368 -470 -694 -552 -96
-24 -122 -27 -295 -27 -210 1 -313 14 -490 67 -314 92 -527 281 -631 556 -66
177 -79 265 -79 567 0 284 2 300 66 765 34 243 73 470 123 716 20 93 33 170
31 172 -2 3 -42 30 -89 61 -225 150 -414 340 -574 578 -55 81 -81 187 -89 353
-11 261 67 511 246 782 68 102 195 237 246 260 31 14 31 15 1 86 -78 187 -106
434 -70 610 45 221 197 396 446 511 127 59 202 75 353 75 187 0 284 -30 453
-140 155 -101 336 -297 439 -477 41 -70 47 -77 63 -65 9 7 48 36 86 65 80 61
216 131 324 167 284 95 552 30 790 -191 98 -92 194 -225 228 -315 95 -255 12
-520 -242 -767 l-86 -83 19 -27 c102 -145 169 -487 141 -718 -20 -160 -114
-406 -223 -583 -25 -41 -44 -77 -42 -79 3 -2 51 37 107 86 204 178 386 404
553 688 10 17 16 16 90 -10 68 -24 100 -29 215 -33 165 -5 236 9 367 74 268
132 453 443 453 758 0 198 -44 304 -184 441 -98 97 -164 138 -281 175 -84 27
-249 30 -332 8 l-52 -15 -16 91 c-118 641 -519 1101 -1206 1382 -215 88 -580
181 -869 221 -177 24 -552 24 -710 -1 -402 -63 -751 -225 -1006 -469 l-62 -58
-7 243 c-4 134 -5 430 -3 658 5 393 7 422 31 555 38 204 91 425 129 543 19 56
33 102 32 102 -2 0 -12 -13 -23 -28z m-716 -2584 c81 -26 167 -78 162 -98 -3
-8 -23 -76 -46 -150 -38 -123 -86 -352 -93 -440 -3 -35 -3 -35 -63 -43 -74 -9
-183 6 -237 34 -60 31 -136 111 -165 176 -49 107 -41 262 20 363 102 172 231
220 422 158z m4717 -1039 c106 -35 180 -135 198 -265 26 -190 -53 -345 -218
-426 -59 -29 -76 -33 -147 -33 -71 0 -88 4 -157 37 l-76 36 38 119 c50 152 78
293 86 424 3 57 8 110 10 118 3 11 27 12 117 8 61 -3 129 -11 149 -18z"/>
<path d="M4268 10652 c-31 -4 -76 -45 -84 -79 -18 -70 35 -143 104 -143 76 0
131 63 118 133 -11 58 -72 97 -138 89z"/>
<path d="M5734 10316 c-70 -31 -87 -120 -35 -178 26 -29 35 -33 81 -33 46 0
55 4 81 33 53 59 35 148 -37 178 -41 17 -50 17 -90 0z"/>
<path d="M4659 10093 c-17 -43 -5 -144 24 -207 31 -68 106 -143 174 -176 l51
-24 -13 -35 c-7 -23 -9 -54 -5 -86 l7 -50 2 45 c1 25 5 63 9 85 7 39 8 39 57
42 62 4 107 18 165 51 91 52 180 156 180 210 0 80 -288 172 -537 172 l-103 0
-11 -27z"/>
<path d="M4866 9575 c-9 -26 -7 -32 5 -12 6 10 9 21 6 23 -2 3 -7 -2 -11 -11z"/>
<path d="M4202 9476 c-2 -84 11 -131 49 -176 l30 -35 -33 54 c-28 46 -34 66
-39 140 l-6 86 -1 -69z"/>
<path d="M4772 9392 c-17 -26 -49 -70 -72 -97 -42 -49 -41 -49 11 6 46 47 109
139 96 139 -2 0 -18 -21 -35 -48z"/>
<path d="M4893 9400 c0 -25 2 -35 4 -22 2 12 2 32 0 45 -2 12 -4 2 -4 -23z"/>
<path d="M4904 9322 c10 -58 46 -128 89 -168 l41 -39 -36 42 c-44 50 -56 72
-80 143 -11 33 -17 42 -14 22z"/>
<path d="M5432 9228 c-6 -19 -29 -54 -49 -79 -27 -32 -29 -37 -9 -19 33 29 79
105 74 121 -2 6 -9 -5 -16 -23z"/>
<path d="M4633 9239 c-7 -7 -36 -20 -65 -30 -29 -10 -44 -18 -33 -18 25 -1
100 33 109 48 9 14 3 14 -11 0z"/>
<path d="M4395 9205 c17 -8 41 -14 55 -14 15 0 5 6 -25 14 -62 17 -69 17 -30
0z"/>
<path d="M5193 9063 c9 -2 25 -2 35 0 9 3 1 5 -18 5 -19 0 -27 -2 -17 -5z"/>
<path d="M7121 3844 c-31 -26 -48 -76 -37 -111 8 -24 183 -74 285 -81 81 -5
91 0 91 54 0 31 -1 32 -86 53 -123 31 -148 43 -163 80 -17 39 -48 41 -90 5z"/>
</g>
</svg>
